<svg width="20" height="16" viewBox="0 0 20 16" fill="none" xmlns="http://www.w3.org/2000/svg">
<path d="M0.75 4.8C0.75 3.94755 0.750583 3.35331 0.788382 2.89068C0.825465 2.4368 0.894596 2.17604 0.995235 1.97852C1.21095 1.55516 1.55516 1.21095 1.97852 0.995235C2.17604 0.894596 2.4368 0.825465 2.89068 0.788382C3.35331 0.750583 3.94755 0.75 4.8 0.75H15.2C16.0525 0.75 16.6467 0.750583 17.1093 0.788382C17.5632 0.825465 17.824 0.894596 18.0215 0.995235C18.4448 1.21095 18.789 1.55516 19.0048 1.97852C19.1054 2.17604 19.1745 2.4368 19.2116 2.89068C19.2494 3.35331 19.25 3.94755 19.25 4.8V11.2C19.25 12.0525 19.2494 12.6467 19.2116 13.1093C19.1745 13.5632 19.1054 13.824 19.0048 14.0215C18.789 14.4448 18.4448 14.789 18.0215 15.0048C17.824 15.1054 17.5632 15.1745 17.1093 15.2116C16.6467 15.2494 16.0525 15.25 15.2 15.25H4.8C3.94755 15.25 3.35331 15.2494 2.89068 15.2116C2.4368 15.1745 2.17604 15.1054 1.97852 15.0048C1.55516 14.789 1.21095 14.4448 0.995235 14.0215C0.894596 13.824 0.825465 13.5632 0.788382 13.1093C0.750583 12.6467 0.75 12.0525 0.75 11.2V4.8Z" fill="#626262" stroke="#0F0F0F" stroke-width="1.5" stroke-linecap="round" stroke-linejoin="round"/>
</svg>
